<svg xmlns="http://www.w3.org/2000/svg" width="192" height="192" viewBox="0 0 192 192">
  <rect width="192" height="192" rx="24" fill="#0f172a"/>
  <!-- Building icon -->
  <g transform="translate(96, 70)" fill="none" stroke="white" stroke-width="4" stroke-linecap="round" stroke-linejoin="round">
    <!-- Main building -->
    <rect x="-40" y="-36" width="36" height="72" rx="2"/>
    <!-- Tall building -->
    <rect x="-10" y="-52" width="36" height="88" rx="2"/>
    <!-- Windows left building -->
    <rect x="-32" y="-26" width="8" height="8" fill="white" stroke="none" rx="1"/>
    <rect x="-32" y="-10" width="8" height="8" fill="white" stroke="none" rx="1"/>
    <rect x="-32" y="6" width="8" height="8" fill="white" stroke="none" rx="1"/>
    <rect x="-18" y="-26" width="8" height="8" fill="white" stroke="none" rx="1"/>
    <rect x="-18" y="-10" width="8" height="8" fill="white" stroke="none" rx="1"/>
    <rect x="-18" y="6" width="8" height="8" fill="white" stroke="none" rx="1"/>
    <!-- Windows right building -->
    <rect x="-2" y="-42" width="8" height="8" fill="white" stroke="none" rx="1"/>
    <rect x="-2" y="-26" width="8" height="8" fill="white" stroke="none" rx="1"/>
    <rect x="-2" y="-10" width="8" height="8" fill="white" stroke="none" rx="1"/>
    <rect x="-2" y="6" width="8" height="8" fill="white" stroke="none" rx="1"/>
    <rect x="12" y="-42" width="8" height="8" fill="white" stroke="none" rx="1"/>
    <rect x="12" y="-26" width="8" height="8" fill="white" stroke="none" rx="1"/>
    <rect x="12" y="-10" width="8" height="8" fill="white" stroke="none" rx="1"/>
    <rect x="12" y="6" width="8" height="8" fill="white" stroke="none" rx="1"/>
    <!-- Door left -->
    <rect x="-28" y="22" width="12" height="14" fill="white" stroke="none" rx="1"/>
    <!-- Door right -->
    <rect x="2" y="22" width="12" height="14" fill="white" stroke="none" rx="1"/>
  </g>
  <!-- RH text -->
  <text x="96" y="158" text-anchor="middle" fill="white" font-family="system-ui, -apple-system, sans-serif" font-size="28" font-weight="700" letter-spacing="2">RH</text>
</svg>
