<svg xmlns="http://www.w3.org/2000/svg" width="512" height="512" viewBox="0 0 512 512">
  <rect width="512" height="512" rx="64" fill="#0f172a"/>
  <!-- Building icon -->
  <g transform="translate(256, 256)" fill="none" stroke="white" stroke-width="8" stroke-linecap="round" stroke-linejoin="round">
    <!-- Main building -->
    <rect x="-106" y="-96" width="96" height="192" rx="4"/>
    <!-- Tall building -->
    <rect x="-26" y="-138" width="96" height="234" rx="4"/>
    <!-- Windows left building -->
    <rect x="-86" y="-70" width="20" height="20" fill="white" stroke="none" rx="2"/>
    <rect x="-86" y="-28" width="20" height="20" fill="white" stroke="none" rx="2"/>
    <rect x="-86" y="14" width="20" height="20" fill="white" stroke="none" rx="2"/>
    <rect x="-50" y="-70" width="20" height="20" fill="white" stroke="none" rx="2"/>
    <rect x="-50" y="-28" width="20" height="20" fill="white" stroke="none" rx="2"/>
    <rect x="-50" y="14" width="20" height="20" fill="white" stroke="none" rx="2"/>
    <!-- Windows right building -->
    <rect x="-6" y="-112" width="20" height="20" fill="white" stroke="none" rx="2"/>
    <rect x="-6" y="-70" width="20" height="20" fill="white" stroke="none" rx="2"/>
    <rect x="-6" y="-28" width="20" height="20" fill="white" stroke="none" rx="2"/>
    <rect x="-6" y="14" width="20" height="20" fill="white" stroke="none" rx="2"/>
    <rect x="30" y="-112" width="20" height="20" fill="white" stroke="none" rx="2"/>
    <rect x="30" y="-70" width="20" height="20" fill="white" stroke="none" rx="2"/>
    <rect x="30" y="-28" width="20" height="20" fill="white" stroke="none" rx="2"/>
    <rect x="30" y="14" width="20" height="20" fill="white" stroke="none" rx="2"/>
    <!-- Door left -->
    <rect x="-76" y="56" width="32" height="40" fill="white" stroke="none" rx="2"/>
    <!-- Door right -->
    <rect x="4" y="56" width="32" height="40" fill="white" stroke="none" rx="2"/>
  </g>
</svg>
